<svg xmlns="http://www.w3.org/2000/svg" width="1080" height="1920" viewBox="0 0 1080 1920" fill="none">
  <defs>
    <linearGradient id="bg" x1="0" y1="0" x2="0" y2="1">
      <stop offset="0%" stop-color="#0f0a1a" />
      <stop offset="45%" stop-color="#1f1533" />
      <stop offset="100%" stop-color="#120d22" />
    </linearGradient>
    <radialGradient id="halo1" cx="0" cy="0" r="1" gradientUnits="userSpaceOnUse" gradientTransform="translate(260 420) rotate(35) scale(620 520)">
      <stop offset="0%" stop-color="#f8dcb7" stop-opacity="0.26" />
      <stop offset="60%" stop-color="#e1b0ff" stop-opacity="0.08" />
      <stop offset="100%" stop-color="#1a1330" stop-opacity="0" />
    </radialGradient>
    <radialGradient id="halo2" cx="0" cy="0" r="1" gradientUnits="userSpaceOnUse" gradientTransform="translate(880 1180) rotate(-22) scale(780 620)">
      <stop offset="0%" stop-color="#c7f1ff" stop-opacity="0.20" />
      <stop offset="52%" stop-color="#b18bff" stop-opacity="0.10" />
      <stop offset="100%" stop-color="#0c0a18" stop-opacity="0" />
    </radialGradient>
    <linearGradient id="sheen" x1="0" y1="0" x2="1" y2="1">
      <stop offset="0%" stop-color="#ffe9c2" stop-opacity="0.0" />
      <stop offset="45%" stop-color="#ffe9c2" stop-opacity="0.24" />
      <stop offset="70%" stop-color="#c1b1ff" stop-opacity="0.18" />
      <stop offset="100%" stop-color="#7fd8ff" stop-opacity="0.0" />
    </linearGradient>
  </defs>
  <rect width="1080" height="1920" fill="url(#bg)" />
  <rect width="1080" height="1920" fill="url(#halo1)" />
  <rect width="1080" height="1920" fill="url(#halo2)" />
  <g opacity="0.32">
    <path d="M-120 720c180-90 360-110 520-40s320 220 520 220 290-110 360-190" stroke="#f5d7b5" stroke-opacity="0.18" stroke-width="2" />
    <path d="M-160 980c210-140 420-150 610-60s360 260 580 260 310-130 380-220" stroke="#b8a6ff" stroke-opacity="0.16" stroke-width="1.5" />
  </g>
  <g opacity="0.28">
    <circle cx="180" cy="1480" r="180" fill="#ffddb8" fill-opacity="0.12" />
    <circle cx="260" cy="360" r="160" fill="#c8b5ff" fill-opacity="0.10" />
    <circle cx="920" cy="540" r="190" fill="#8ad9ff" fill-opacity="0.12" />
  </g>
  <rect width="1080" height="1920" fill="url(#sheen)" opacity="0.32" />
  <text x="540" y="980" text-anchor="middle" fill="#fbeedc" fill-opacity="0.82" font-family="'Playfair Display', 'Times New Roman', serif" font-size="120" letter-spacing="6">P&amp;Me</text>
  <text x="540" y="1060" text-anchor="middle" fill="#e5d7ff" fill-opacity="0.58" font-family="Inter, 'Helvetica Neue', Arial, sans-serif" font-size="24" letter-spacing="6" style="text-transform:uppercase">night bloom</text>
</svg>
