<svg xmlns="http://www.w3.org/2000/svg" width="1080" height="1920" viewBox="0 0 1080 1920" fill="none">
  <defs>
    <linearGradient id="bg2" x1="0" y1="0" x2="1" y2="1">
      <stop offset="0%" stop-color="#201323" />
      <stop offset="40%" stop-color="#1b1f36" />
      <stop offset="100%" stop-color="#0e1625" />
    </linearGradient>
    <radialGradient id="glow1" cx="0" cy="0" r="1" gradientUnits="userSpaceOnUse" gradientTransform="translate(820 380) rotate(16) scale(640 520)">
      <stop offset="0%" stop-color="#ffe2c0" stop-opacity="0.24" />
      <stop offset="60%" stop-color="#f3bfff" stop-opacity="0.10" />
      <stop offset="100%" stop-color="#0e1625" stop-opacity="0" />
    </radialGradient>
    <radialGradient id="glow2" cx="0" cy="0" r="1" gradientUnits="userSpaceOnUse" gradientTransform="translate(240 1320) rotate(-18) scale(720 620)">
      <stop offset="0%" stop-color="#a0e7ff" stop-opacity="0.20" />
      <stop offset="48%" stop-color="#ffe7c2" stop-opacity="0.14" />
      <stop offset="100%" stop-color="#101728" stop-opacity="0" />
    </radialGradient>
    <linearGradient id="foil" x1="0" y1="0" x2="1" y2="0">
      <stop offset="0%" stop-color="#fff3d9" stop-opacity="0" />
      <stop offset="32%" stop-color="#fff3d9" stop-opacity="0.28" />
      <stop offset="56%" stop-color="#b8c8ff" stop-opacity="0.18" />
      <stop offset="100%" stop-color="#69d3ff" stop-opacity="0" />
    </linearGradient>
  </defs>
  <rect width="1080" height="1920" fill="url(#bg2)" />
  <rect width="1080" height="1920" fill="url(#glow1)" />
  <rect width="1080" height="1920" fill="url(#glow2)" />
  <g stroke-linecap="round" opacity="0.30">
    <path d="M-80 620c200-120 400-130 590-20s360 240 560 240 280-110 360-210" stroke="#ffe8c8" stroke-opacity="0.16" stroke-width="2" />
    <path d="M-40 980c210-110 430-90 620 30s340 250 530 250 280-100 360-190" stroke="#c1b1ff" stroke-opacity="0.14" stroke-width="1.5" />
  </g>
  <g opacity="0.22">
    <circle cx="920" cy="1180" r="210" fill="#ffe4c8" fill-opacity="0.16" />
    <circle cx="320" cy="440" r="200" fill="#9fd8ff" fill-opacity="0.14" />
    <circle cx="180" cy="1580" r="240" fill="#f0d5ff" fill-opacity="0.10" />
  </g>
  <rect width="1080" height="1920" fill="url(#foil)" opacity="0.36" />
  <text x="540" y="960" text-anchor="middle" fill="#f9eedc" fill-opacity="0.86" font-family="'Playfair Display', 'Times New Roman', serif" font-size="120" letter-spacing="6">P&amp;Me</text>
  <text x="540" y="1046" text-anchor="middle" fill="#d8d5ff" fill-opacity="0.64" font-family="Inter, 'Helvetica Neue', Arial, sans-serif" font-size="24" letter-spacing="6" style="text-transform:uppercase">dawn hush</text>
</svg>
