<svg xmlns="http://www.w3.org/2000/svg" width="1600" height="1200" viewBox="0 0 1600 1200" fill="none">
  <defs>
    <linearGradient id="m7bg" x1="0" y1="0" x2="1" y2="1">
      <stop offset="0%" stop-color="#120f1f" />
      <stop offset="55%" stop-color="#1a1c2e" />
      <stop offset="100%" stop-color="#0f1422" />
    </linearGradient>
    <radialGradient id="m7halo1" cx="0" cy="0" r="1" gradientUnits="userSpaceOnUse" gradientTransform="translate(460 320) rotate(20) scale(720 520)">
      <stop offset="0%" stop-color="#f5dfc6" stop-opacity="0.30" />
      <stop offset="50%" stop-color="#c2b4ff" stop-opacity="0.16" />
      <stop offset="100%" stop-color="#0f1422" stop-opacity="0" />
    </radialGradient>
    <radialGradient id="m7halo2" cx="0" cy="0" r="1" gradientUnits="userSpaceOnUse" gradientTransform="translate(1260 880) rotate(-20) scale(820 640)">
      <stop offset="0%" stop-color="#8cd7ff" stop-opacity="0.26" />
      <stop offset="58%" stop-color="#f5dfc6" stop-opacity="0.12" />
      <stop offset="100%" stop-color="#101526" stop-opacity="0" />
    </radialGradient>
    <linearGradient id="m7foil" x1="0" y1="0" x2="1" y2="0">
      <stop offset="0%" stop-color="#ffeacc" stop-opacity="0" />
      <stop offset="38%" stop-color="#ffeacc" stop-opacity="0.34" />
      <stop offset="64%" stop-color="#b9c6ff" stop-opacity="0.20" />
      <stop offset="100%" stop-color="#7dd9ff" stop-opacity="0" />
    </linearGradient>
  </defs>
  <rect width="1600" height="1200" fill="url(#m7bg)" />
  <rect width="1600" height="1200" fill="url(#m7halo1)" />
  <rect width="1600" height="1200" fill="url(#m7halo2)" />
  <g opacity="0.32" stroke-linecap="round">
    <path d="M-40 460c260-140 520-130 760 10s420 260 620 260 300-90 420-200" stroke="#f4e1c9" stroke-opacity="0.18" stroke-width="2" />
    <path d="M-60 720c230-110 470-70 700 90s420 230 620 230 310-110 400-210" stroke="#b6a8ff" stroke-opacity="0.16" stroke-width="1.5" />
  </g>
  <g opacity="0.22">
    <circle cx="290" cy="960" r="210" fill="#ffe2c2" fill-opacity="0.14" />
    <circle cx="1180" cy="340" r="190" fill="#a2deff" fill-opacity="0.18" />
  </g>
  <rect width="1600" height="1200" fill="url(#m7foil)" opacity="0.34" />
  <text x="800" y="640" text-anchor="middle" fill="#f6ecda" fill-opacity="0.88" font-family="'Playfair Display', 'Times New Roman', serif" font-size="80" letter-spacing="4">Nocturne</text>
  <text x="800" y="706" text-anchor="middle" fill="#dcd4ff" fill-opacity="0.64" font-family="Inter, 'Helvetica Neue', Arial, sans-serif" font-size="22" letter-spacing="6" style="text-transform:uppercase">velvet hush</text>
</svg>
