<svg xmlns="http://www.w3.org/2000/svg" width="1600" height="1200" viewBox="0 0 1600 1200" fill="none">
  <defs>
    <linearGradient id="m8bg" x1="0" y1="0" x2="1" y2="1">
      <stop offset="0%" stop-color="#171120" />
      <stop offset="60%" stop-color="#1b1f30" />
      <stop offset="100%" stop-color="#0f1624" />
    </linearGradient>
    <radialGradient id="m8halo1" cx="0" cy="0" r="1" gradientUnits="userSpaceOnUse" gradientTransform="translate(1180 320) rotate(18) scale(780 540)">
      <stop offset="0%" stop-color="#ffe7c8" stop-opacity="0.30" />
      <stop offset="54%" stop-color="#c9bdff" stop-opacity="0.16" />
      <stop offset="100%" stop-color="#0f1624" stop-opacity="0" />
    </radialGradient>
    <radialGradient id="m8halo2" cx="0" cy="0" r="1" gradientUnits="userSpaceOnUse" gradientTransform="translate(420 900) rotate(-12) scale(780 640)">
      <stop offset="0%" stop-color="#9bdcff" stop-opacity="0.24" />
      <stop offset="58%" stop-color="#ffe7c8" stop-opacity="0.12" />
      <stop offset="100%" stop-color="#0f1624" stop-opacity="0" />
    </radialGradient>
    <linearGradient id="m8foil" x1="0" y1="0" x2="1" y2="0">
      <stop offset="0%" stop-color="#fff1d8" stop-opacity="0" />
      <stop offset="34%" stop-color="#fff1d8" stop-opacity="0.30" />
      <stop offset="62%" stop-color="#b4c2ff" stop-opacity="0.18" />
      <stop offset="100%" stop-color="#70d6ff" stop-opacity="0" />
    </linearGradient>
  </defs>
  <rect width="1600" height="1200" fill="url(#m8bg)" />
  <rect width="1600" height="1200" fill="url(#m8halo1)" />
  <rect width="1600" height="1200" fill="url(#m8halo2)" />
  <g opacity="0.32" stroke-linecap="round">
    <path d="M-20 520c240-110 490-80 720 120s420 250 640 240 300-120 400-220" stroke="#f6e5cf" stroke-opacity="0.18" stroke-width="2" />
    <path d="M-40 780c230-100 470-40 700 170s420 240 620 240 310-140 400-240" stroke="#b7abff" stroke-opacity="0.16" stroke-width="1.5" />
  </g>
  <g opacity="0.20">
    <circle cx="1340" cy="940" r="220" fill="#ffe7c8" fill-opacity="0.14" />
    <circle cx="320" cy="340" r="200" fill="#a7ddff" fill-opacity="0.16" />
  </g>
  <rect width="1600" height="1200" fill="url(#m8foil)" opacity="0.36" />
  <text x="800" y="640" text-anchor="middle" fill="#f7edde" fill-opacity="0.88" font-family="'Playfair Display', 'Times New Roman', serif" font-size="80" letter-spacing="4">Dawn</text>
  <text x="800" y="706" text-anchor="middle" fill="#dcd6ff" fill-opacity="0.62" font-family="Inter, 'Helvetica Neue', Arial, sans-serif" font-size="22" letter-spacing="6" style="text-transform:uppercase">gentle rise</text>
</svg>
